<svg width="100%" height="100%" viewBox="0 0 286 286" version="1.1" xmlns="http://www.w3.org/2000/svg"
  xmlns:xlink="http://www.w3.org/1999/xlink" xml:space="preserve" xmlns:serif="http://www.serif.com/"
  style="fill-rule:evenodd;clip-rule:evenodd;stroke-linejoin:round;stroke-miterlimit:2;">
  <rect id="Page-3" serif:id="Page 3" x="0" y="0" width="285.472" height="285.986" style="fill:none;" />
  <g id="Layer-1" serif:id="Layer 1">
    <path
      d="M50.762,113.123l2.556,-0l0,-59.437l178.558,-0l0,178.561l-178.558,-0l0,-59.436l-2.556,-0l0,61.993l183.67,-0l0,-183.674l-183.67,-0l0,61.993Z"
      style="fill-rule:nonzero;" fill="current" />
    <path
      d="M48.021,160.318c-1.808,-0.487 -2.494,-0.804 -2.741,-0.951l-0.455,-0.213c-0.589,-0.204 -1.961,-0.897 -4.386,-3.059c-3.641,-3.834 -5.412,-8.119 -5.412,-13.096c0,-4.559 1.465,-8.547 4.476,-12.195c3.615,-3.809 7.625,-5.661 12.259,-5.661c4.617,0 8.585,1.752 12.028,5.246c3.27,3.734 4.86,7.797 4.86,12.424l0,0.31c0,3.866 -1.154,7.388 -3.583,10.854c-0.271,0.423 -1.067,1.434 -3.169,3.303c-3.232,2.338 -6.359,3.476 -9.558,3.476l-1.027,0c-0.955,0 -2.086,-0.155 -3.292,-0.438m17.409,3.834l1.976,-1.465l0.228,-0.188c1.784,-1.681 3.011,-3 3.752,-4.039c3.343,-4.703 5.036,-9.779 5.036,-15.082l0,-0.941c0,-4.376 -1.252,-8.755 -3.741,-13.051c-0.796,-1.323 -1.968,-2.817 -3.701,-4.689c-4.978,-4.731 -10.694,-7.128 -17.218,-7.128c-6.141,0 -11.726,2.236 -16.601,6.651l-0.105,0.101c-5.198,5.277 -7.832,11.498 -7.832,18.678c0,7.103 2.626,13.338 7.881,18.599c4.854,4.491 10.479,6.767 16.719,6.767c4.808,0 9.347,-1.39 13.606,-4.213"
      style="fill-rule:nonzero;" fill="current" />
    <path
      d="M77.88,155.134l1.507,3.442c0.541,0.978 1.016,1.738 1.357,2.183c0.524,0.807 1.312,1.758 2.564,3.054c0.852,0.755 1.519,1.299 2.042,1.679c3.342,2.333 7.106,3.518 11.185,3.518c2.459,-0 4.879,-0.445 7.219,-1.337c3.527,-1.39 6.21,-3.583 8.01,-6.579c1.375,-2.437 2.073,-4.939 2.073,-7.438l-0,-0.406c-0,-2.123 -0.53,-4.244 -1.61,-6.369c-0.463,-0.851 -1.006,-1.636 -1.502,-2.196c-0.213,-0.28 -0.611,-0.738 -1.946,-1.911c-1.094,-0.846 -2.176,-1.516 -3.191,-1.981c-0.929,-0.441 -2.015,-0.828 -3.353,-1.183c-2.538,-0.544 -4.545,-1.025 -6.121,-1.461c-2.477,-0.709 -4.31,-1.395 -5.54,-2.089c-0.446,-0.23 -0.983,-0.61 -1.537,-1.087c-0.533,-0.465 -1.24,-1.293 -1.24,-3.104c-0,-1.58 0.524,-3.012 1.565,-4.334c0.351,-0.425 0.835,-0.87 1.374,-1.275c1.715,-1.203 3.713,-1.789 6.181,-1.789c2.25,-0 4.185,0.623 5.97,1.943c0.411,0.289 0.858,0.692 1.349,1.223c0.586,0.619 1.01,1.178 1.259,1.661l1.082,2.107l7.157,-3.013l-1.233,-2.446c-0.368,-0.726 -0.923,-1.541 -1.565,-2.31c-0.235,-0.347 -0.677,-0.909 -2.113,-2.285c-0.937,-0.806 -1.744,-1.404 -2.434,-1.805c-2.873,-1.739 -6.002,-2.621 -9.302,-2.621l-0.412,-0c-1.546,-0 -3.19,0.201 -4.886,0.601l-0.078,0.018c-1.071,0.287 -2.149,0.689 -3.233,1.206c-0.744,0.366 -1.428,0.76 -1.821,1.041c-0.553,0.298 -1.218,0.819 -2.334,1.851c-0.542,0.562 -0.984,1.065 -1.411,1.6c-1.938,2.64 -2.921,5.501 -2.921,8.726c-0,4.132 1.895,7.566 5.498,9.942c0.986,0.639 2.007,1.19 3.007,1.624c2.652,1.187 6.605,2.338 11.65,3.396c0.679,0.171 1.244,0.352 1.711,0.544c0.443,0.18 0.85,0.394 1.244,0.659l0.289,0.166c0.232,0.14 0.548,0.422 0.848,0.687c1.204,1.267 1.789,2.713 1.789,4.482c-0,0.862 -0.148,1.724 -0.445,2.573c-0.328,0.957 -0.914,1.877 -1.632,2.629c-0.767,0.705 -1.139,0.951 -1.302,1.047c-1.892,1.151 -3.892,1.711 -6.113,1.711c-2.254,-0 -4.271,-0.586 -6.309,-1.869c-0.059,-0.033 -0.394,-0.233 -1.225,-0.969c-0.699,-0.677 -1.197,-1.222 -1.49,-1.631c-0.579,-0.799 -1.052,-1.601 -1.404,-2.387l-0.679,-1.506l-0.006,-0l-0.218,-0.745l-3.16,1.202c-0.043,0.015 -0.09,0.033 -0.135,0.05l-1.038,0.395l0.03,-0.006c-0.176,0.068 -0.338,0.131 -0.543,0.211l-2.478,0.961Z"
      style="fill-rule:nonzero;" fill="current" />
    <path d="M119.058,117.571l0,50.791l29.734,0l0,-7.541l-21.992,0l0,-43.25l-7.742,0Z" style="fill-rule:nonzero;"
      fill="current" />
  </g>
</svg>